<svg xmlns="http://www.w3.org/2000/svg" width="12" height="15" viewBox="0 0 12 15">
    <path fill="#02529C" fill-rule="evenodd" d="M5.97 4.994a1.327 1.327 0 1 1 0-2.654 1.327 1.327 0 0 1 0 2.654zM3.815 7.647a.129.129 0 0 1-.147-.147v-.092a2.027 2.027 0 0 1 2.046-2.046h.516a2.027 2.027 0 0 1 2.045 2.046V7.5a.129.129 0 0 1-.147.147H3.814zM9.73 0c1.221 0 2.211.99 2.211 2.211V12.79c0 1.221-.99 2.211-2.211 2.211H2.21A2.211 2.211 0 0 1 0 12.789V2.21C0 .99.99 0 2.211 0H9.73zm.737 12.789V2.21a.737.737 0 0 0-.737-.737H2.21a.737.737 0 0 0-.737.737V12.79c0 .407.33.737.737.737H9.73c.407 0 .737-.33.737-.737zM2.5 9h7a.5.5 0 0 1 0 1h-7a.5.5 0 0 1 0-1zm0 2h7a.5.5 0 0 1 0 1h-7a.5.5 0 0 1 0-1z"/>
</svg>
