<svg xmlns="http://www.w3.org/2000/svg" width="15" height="15" viewBox="0 0 15 15">
    <path fill="#02529C" fill-rule="evenodd" d="M6.923.577v5.77c0 .316-.26.576-.577.576H.576A.579.579 0 0 1 0 6.346V.576C0 .26.26 0 .577 0h5.77c.316 0 .576.26.576.577zm8.077 0v5.77c0 .316-.26.576-.577.576h-5.77a.579.579 0 0 1-.576-.577V.576c0-.316.26-.576.577-.576h5.77c.316 0 .576.26.576.577zM8.654 15a.579.579 0 0 1-.577-.577v-5.77c0-.316.26-.576.577-.576h5.77c.316 0 .576.26.576.577v5.77c0 .316-.26.576-.577.576h-5.77zM6.346 8.077c.317 0 .577.26.577.577v5.77c0 .316-.26.576-.577.576H.576A.579.579 0 0 1 0 14.423v-5.77c0-.316.26-.576.577-.576h5.77z"/>
</svg>
