<svg xmlns="http://www.w3.org/2000/svg" width="177" height="29" viewBox="0 0 177 29">
    <defs>
        <linearGradient id="a" x1="78.839%" x2="12.054%" y1="3.764%" y2="92.617%">
            <stop offset="0%" stop-color="#142B65"/>
            <stop offset="100%" stop-color="#E083C4"/>
        </linearGradient>
        <linearGradient id="b" x1="69.545%" x2="16.656%" y1="16.131%" y2="80.812%">
            <stop offset="0%" stop-color="#256D88"/>
            <stop offset="100%" stop-color="#80C2E9"/>
        </linearGradient>
        <linearGradient id="c" x1="-5.859%" x2="98.023%" y1="101.659%" y2="0%">
            <stop offset="0%" stop-color="#91237F"/>
            <stop offset="100%" stop-color="#952237"/>
        </linearGradient>
        <linearGradient id="d" x1="85.23%" x2="0%" y1="-19.839%" y2="104.496%">
            <stop offset="0%" stop-color="#1C2966"/>
            <stop offset="100%" stop-color="#1060B0"/>
        </linearGradient>
        <linearGradient id="e" x1="50%" x2="50%" y1="0%" y2="99.42%">
            <stop offset="0%" stop-color="#F4E376"/>
            <stop offset="100%" stop-color="#E5C341"/>
        </linearGradient>
        <linearGradient id="f" x1="26.059%" x2="75.528%" y1="118.188%" y2="-38.281%">
            <stop offset="0%" stop-color="#9EC674"/>
            <stop offset="100%" stop-color="#40915F"/>
        </linearGradient>
        <linearGradient id="g" x1="33.603%" x2="50%" y1="-57.355%" y2="100%">
            <stop offset="0%" stop-color="#A6481E"/>
            <stop offset="100%" stop-color="#CE8945"/>
        </linearGradient>
    </defs>
    <g fill="none" fill-rule="evenodd">
        <path fill="#02529C" d="M57.817 19.576l1.832 1.885c-1.647 1.48-3.396 2.093-5.246 1.838-2.775-.382-5.546-2.679-5.388-6.644.158-3.966 4.162-6.848 7.904-5.748.867.255 1.675.712 2.423 1.373l-1.82 2.101c-.748-.615-1.575-.893-2.483-.835-1.95.123-3.08 1.766-3.218 3.266-.141 1.538.838 3.222 2.311 3.666 1.433.432 2.661.132 3.685-.902zm24.41 0l1.832 1.885c-1.647 1.48-3.395 2.093-5.246 1.838-2.775-.382-5.546-2.679-5.388-6.644.159-3.966 4.162-6.848 7.904-5.748.867.255 1.675.712 2.423 1.373l-1.82 2.101c-.748-.615-1.575-.893-2.483-.835-1.95.123-3.08 1.766-3.218 3.266-.141 1.538.838 3.222 2.311 3.666 1.433.432 2.661.132 3.685-.902zM61.683 7.296c0-1.529 0-1.448.7-.717.626.656 1.107 1.21 1.44 1.66.674.907.86.984.85 1.738-.048 3.815.041 6.863.041 9.504 0 .573.245.938.758.938h1.062v2.736c-1.503.113-2.553-.006-3.152-.358-.898-.53-1.699-1.828-1.699-4.724V7.296zm6.729-.352c0-.683.006-.683.482-.28.476.402 1.895 1.534 2.193 1.78.587.483.747.458-.391.458h-2.284V6.944zm0 4.359h2.883v12.052h-2.883V11.303zm17.681-5.547c1.305 1.224 2.125 2.059 2.46 2.503.502.666.45.767.45 1.674v6.106l4.25-4.778h3.308l-4.991 5.884 5.477 6.21h-3.298l-4.746-5.405v5.405h-2.91v-17.6z"/>
        <path fill="#B1B1B1" d="M98.894 23.388h2.732v-6.104c.045-.44.11-.812.193-1.115.394-1.43 1.542-2.47 3.02-2.47 1.477 0 2.68 1.036 2.951 2.047.181.674.252 1.218.212 1.63v6.012h2.783v-6.774c0-.426-.086-.883-.257-1.37-.955-2.71-2.889-4.065-5.802-4.065-2.914 0-4.786 1.356-5.615 4.067a4.998 4.998 0 0 0-.217 1.592v6.55z"/>
        <path fill="#02529C" d="M121.486 19.576l1.833 1.885c-1.648 1.48-3.397 2.093-5.247 1.838-2.776-.382-5.548-2.679-5.39-6.644.159-3.966 4.163-6.848 7.906-5.748.867.255 1.675.712 2.423 1.373l-1.82 2.101c-.748-.615-1.576-.893-2.483-.835-1.95.123-3.082 1.766-3.22 3.266-.14 1.538.84 3.222 2.313 3.666 1.433.432 2.661.132 3.685-.902zm40.692 0l1.832 1.885c-1.647 1.48-3.396 2.093-5.247 1.838-2.776-.382-5.547-2.679-5.389-6.644.158-3.966 4.162-6.848 7.905-5.748.868.255 1.676.712 2.424 1.373l-1.82 2.101c-.748-.615-1.576-.893-2.484-.835-1.95.123-3.081 1.766-3.219 3.266-.14 1.538.839 3.222 2.312 3.666 1.433.432 2.662.132 3.686-.902zm-17.006 3.779c-3.426 0-6.203-2.838-6.203-6.34 0-3.501 2.783-6.344 6.203-6.344 1.62 0 3.425.49 4.937 2.407.905 1.147 1.308 2.869 1.21 5.165h-9.303c.322 1.387 1.2 2.206 2.632 2.459 1.02.18 2.135-.12 3.345-.898l1.488 1.772c-1.26 1.186-2.695 1.779-4.309 1.779zm-3.242-7.378l6.228.085c-.377-1.86-1.393-2.811-3.048-2.854-1.654-.043-2.714.88-3.18 2.769zm24.115-10.221c1.305 1.224 2.125 2.059 2.46 2.503.501.666.45.767.45 1.674v6.106l4.252-4.778h3.307l-4.992 5.884 5.478 6.21h-3.298l-4.747-5.405v5.405h-2.91v-17.6zm-40.692 17.599V6.231c1.144.993 1.874 1.673 2.19 2.037.318.365.499.735.543 1.11v2.788c1.002-.674 2.036-1.01 3.1-1.01 2.75 0 4.672 1.364 5.769 4.093.195.485.293 1.076.293 1.77v6.336h-2.784v-6.336a3.15 3.15 0 0 0-.25-1.26c-.615-1.43-1.625-2.122-3.027-2.08-1.471.045-2.46.817-2.968 2.317a2.91 2.91 0 0 0-.133.93v6.429h-2.733z"/>
        <path fill="url(#a)" d="M25.375 22.297l-.7-8.986-7.915 4.497L18.818 29z"/>
        <path fill="url(#b)" d="M26.382 21.077l.089-8.765 7.544-4.389-1.122 6.796z"/>
        <path fill="url(#c)" d="M25.375 22.295L0 12.678 18.803 29z"/>
        <path fill="url(#d)" d="M16.76 17.809l9.622 3.268 6.51-6.36-8.219-1.406z"/>
        <path fill="url(#e)" d="M34.294 13.47l1.732-6.54 4.229-2.389-.94 3.998z"/>
        <path fill="url(#f)" d="M26.47 12.313l7.825 1.157 5.02-4.93-5.3-.617z"/>
        <path fill="url(#g)" d="M36.026 6.931l4.599.517L48.243 0z"/>
    </g>
</svg>
