<svg xmlns="http://www.w3.org/2000/svg" width="11" height="15" viewBox="0 0 11 15">
    <path fill="#02529C" fill-rule="nonzero" d="M10.65 13.308V3.281c0-.018 0-.034-.002-.05-.023-.375-.234-.735-.572-.892a1.267 1.267 0 0 0-.563-.105h-1.24c0-.16 0-.342-.003-.512v-.027a.438.438 0 0 0-.116-.289.357.357 0 0 0-.196-.107v0c-.018-.004-.038-.01-.057-.01-.002 0-.003 0-.003-.002l-.002-.004c-.006-.007-.014.006-.02-.01h-1.31A1.99 1.99 0 0 0 6.538 1 1.262 1.262 0 0 0 5.86.12a1.229 1.229 0 0 0-1.72.797 1.512 1.512 0 0 0-.048.356h-.83c-.156 0-.316.002-.473.006a.421.421 0 0 0-.407.424c-.002.053-.005.11-.005.165v.37H1.021C.46 2.242.01 2.703.001 3.285c-.001.077.003.153.003.23v9.891c0 .35-.04.736.127 1.054.188.354.55.54.93.54h8.232c.11 0 .222-.005.332-.005a1.03 1.03 0 0 0 1.01-.845c.04-.273.014-.568.014-.842zM4.885 1.238l.001-.023c.002-.014.003-.029.007-.043l.004-.02.002-.004c.001-.003-.002-.007-.002-.011.002-.005 0-.01 0-.015h.005c0-.001.003-.003.003-.005 0-.001.002-.001.002-.003.001-.003.001-.006.003-.008l.004-.013.002-.001c0-.002-.003-.002-.003-.003.001-.004-.002-.005-.002-.007s.005-.002.005-.002l.004-.006c0-.002.002-.002.004-.003l.001-.002.002-.001c.001-.002.001-.005.003-.007l.001-.001c.002-.002.002-.005.003-.007l.004-.005.006-.01.004-.01.01-.015A.071.071 0 0 1 4.97.996c.005-.005.008-.012.012-.017l.002-.001c.005-.005.008-.011.012-.016l.016-.018a.43.43 0 0 1 .17-.107l.008-.003L5.2.832h.002l.034-.008c.003 0 .004.003.007.002.025-.007.052-.004.078-.004.023 0 .046-.001.067.004.006.001.012-.004.017-.004l.006.005c.003.002.006-.005.01.011a.21.21 0 0 1 .08.023.02.02 0 0 0 .009.001.38.38 0 0 1 .12.085l.012.012.017.019a.453.453 0 0 1 .087.186c.003.01.006.02.007.03l.005.026c0 .002.005.003.005.005 0 .003.004.005.004.008v.03l-.003.015-.001.013-.002.012-.001.004v.003l-.002.01-.005.022-.003.01c-.001.008-.004.014-.006.02l-.005.018c-.001.003-.001.008-.003.011l-.001.005v.011c0 .005-.006.01-.008.013 0 .002-.002.003-.003.003l-.005.01-.009.02a.12.12 0 0 1-.01.02l-.006.008c-.004.01-.01.018-.017.027a.042.042 0 0 1-.007.01c-.008.011-.019.02-.028.03-.006.008-.006.016-.022.024h.003c0 .007-.01.012-.017.018l-.017.015-.001.001-.02.015-.007.004c-.003.004-.008.005-.01.008a.33.33 0 0 1-.041.023l-.01.005a.074.074 0 0 1-.012.004h-.001-.002l-.004.002-.005.002-.011.004-.012.005c-.003.002-.007.002-.01.003a.352.352 0 0 1-.13.02H5.286c-.003 0-.006 0-.01-.002h-.004-.002l-.006-.001c-.003 0-.005 0-.008-.002l-.012-.002-.008-.001-.045-.012c-.004-.001-.008-.006-.012-.008-.006-.001-.011-.01-.017-.01l-.002.004-.004.002v.001h-.002l-.006-.001c-.002 0-.002-.002-.003-.002-.002 0-.002-.002-.003-.002l-.005-.001-.008-.003-.008-.005c-.001-.002-.003-.002-.006-.003-.001-.002-.003-.002-.006-.004l-.008-.004-.004-.004-.008-.004-.005-.004-.003-.001c-.001 0-.001-.002-.003-.002l-.002-.001-.001-.002-.008-.005-.004-.003a.359.359 0 0 1-.03-.023c-.006-.004-.01-.01-.015-.014l-.007-.006-.006-.007-.003-.003L5 1.573l-.008-.008-.001-.002-.002-.001-.001-.002-.002-.002-.005-.004c-.001-.004-.004-.005-.006-.008a.071.071 0 0 1-.012-.018l-.011-.015a.206.206 0 0 1-.023-.04.076.076 0 0 1-.008-.016.012.012 0 0 1-.003-.008c-.002-.004-.005-.008-.006-.013l-.008-.019C4.9 1.416 4.9 1.412 4.9 1.411c-.002-.007-.005-.011-.006-.018a.03.03 0 0 1-.004-.011l-.001-.006c-.002-.004-.002-.007-.002-.01l-.001-.01c-.002-.003-.002-.008-.003-.01L4.88 1.33l-.003-.023v-.001-.002L4.875 1.3c0-.006-.003-.011-.003-.017l.001-.023c.011-.008.013-.016.013-.022zM3.443 11.984h-1.41c-.268 0-.468-.222-.479-.49-.012-.267.23-.489.48-.489h1.409c.268 0 .468.222.479.49.012.267-.228.489-.48.489zm5.354-.942l-.245.254c-.349.362-.7.723-1.048 1.085l-.66.683a.475.475 0 0 1-.678 0c-.299-.31-.598-.619-.899-.928a.518.518 0 0 1 0-.7c.175-.198.5-.182.678 0l.56.58A567.78 567.78 0 0 1 8.12 10.34a.477.477 0 0 1 .677 0c.19.18.178.517 0 .701zm-.181-2.064c-.004 0-.008.004-.011.004-.267.006-.535.004-.803.004H2.033c-.268 0-.468-.23-.479-.498a.496.496 0 0 1 .48-.5l.01.003c.267-.007.535.001.803.001h5.77c.268 0 .468.225.48.494a.492.492 0 0 1-.481.492zm0-3.02l-.011-.002c-.267.004-.535-.002-.803-.002H2.033c-.268 0-.468-.226-.479-.494a.493.493 0 0 1 .48-.496l.01-.001c.267-.007.535-.003.803-.003h5.77c.268 0 .468.229.48.498a.497.497 0 0 1-.481.5z"/>
</svg>
