<svg xmlns="http://www.w3.org/2000/svg" width="18" height="12" viewBox="0 0 18 12">
    <g fill="#02529C" fill-rule="evenodd">
        <path fill-rule="nonzero" d="M2.99 4.927c.154.457.396.902.696 1.227.17.184.358.33.558.418.138.06.282.095.43.095.148 0 .292-.034.43-.095.207-.092.402-.244.576-.437.293-.324.53-.762.68-1.212.115-.037.236-.278.285-.585.054-.333.004-.623-.112-.671.004-.082.007-.164.006-.248-.002-1.207-.64-2.004-1.645-2.078-.877-.066-1.537.32-1.838.963-.1.216-.158.582-.18.876a2.2 2.2 0 0 0-.054.476h.003v.004l-.007.001c-.128.024-.186.328-.13.678.052.32.182.569.303.588zm.03-.9a.18.18 0 0 1 .05-.09.068.068 0 0 1 .03-.014c.023-.004.048.006.072.028l.001-.006c.005-.051.041-.324.195-.541a.624.624 0 0 1 .61-.272s.602.247 1.15.029c.059-.002.116-.002.17 0 .226.01.382.14.545.224-.006-.083-.064-.168-.06-.224.025.008.049.02.072.034.117.138.23.371.32.751v.004h.002l.001-.001a.114.114 0 0 1 .036-.022c.006-.003.013-.002.019-.003.005 0 .011-.002.016-.001.006 0 .012.003.017.006.056.029.088.146.086.296-.001.05-.006.103-.015.159l-.008.041c-.03.15-.084.274-.142.328a.12.12 0 0 1-.04.026.067.067 0 0 1-.037.004.07.07 0 0 1-.037-.022c-.139.48-.404.958-.738 1.249-.05.042-.1.081-.152.115a.926.926 0 0 1-.508.165c-.232 0-.452-.102-.647-.269-.34-.289-.61-.773-.752-1.26a.072.072 0 0 1-.038.022c-.028.006-.06-.01-.088-.042-.06-.066-.113-.198-.139-.357a.469.469 0 0 1-.004-.031c.001-.111.006-.22.012-.326z"/>
        <path d="M5.618 9.575c.196-.894.47-1.62.815-2.156.078-.12.156-.226.234-.32a1.072 1.072 0 0 0-.52-.292L6.1 6.794a2.438 2.438 0 0 0-.526-.08c-.136-.01-.265-.02-.37-.047-.123.43-.725.744-1.466.744-.742 0-1.343-.313-1.466-.744-.106.028-.235.037-.37.048a2.42 2.42 0 0 0-.526.08l-.046.012c-.14.036-.46.118-.777.608-.19.296-.379.74-.526 1.412a1.319 1.319 0 0 0 .052.727c.326.82 2.101 1.113 3.654 1.113h.009c.61 0 1.254-.046 1.831-.15a2.895 2.895 0 0 1 .044-.942z"/>
        <path fill-rule="nonzero" d="M9.765 4.492c.204.572.528 1.128.928 1.534.226.23.477.412.744.523.184.075.376.118.573.118.197 0 .389-.042.573-.118.277-.115.536-.306.768-.547.39-.406.706-.953.906-1.515.154-.047.315-.347.381-.73.071-.417.004-.78-.15-.84.006-.102.01-.205.009-.31C14.493 1.1 13.643.102 12.303.01c-1.168-.082-2.049.401-2.45 1.204-.135.27-.212.728-.242 1.095-.045.19-.071.39-.071.595h.005l-.001.005-.008.001c-.171.03-.25.41-.174.848.068.4.242.711.403.735zm.038-1.124a.22.22 0 0 1 .068-.113.098.098 0 0 1 .039-.017c.032-.006.065.007.098.034v-.008c.007-.063.055-.405.26-.676.159-.21.412-.378.813-.34 0 0 .804.309 1.535.036.078-.001.155-.002.225 0 .303.012.51.176.727.28-.007-.103-.084-.209-.08-.28.034.01.066.026.096.043.157.173.308.464.428.939v.005h.002l.002-.002a.154.154 0 0 1 .047-.027c.01-.004.017-.003.026-.003.007 0 .015-.004.022-.002a.091.091 0 0 1 .023.007c.074.037.117.183.113.37a1.288 1.288 0 0 1-.019.199l-.011.052c-.04.188-.112.342-.189.41a.162.162 0 0 1-.053.032.095.095 0 0 1-.05.006.097.097 0 0 1-.05-.028c-.185.6-.538 1.197-.983 1.56a1.958 1.958 0 0 1-.204.145c-.211.13-.44.205-.676.205-.31 0-.602-.127-.864-.335-.453-.362-.814-.967-1.001-1.575a.1.1 0 0 1-.05.028c-.039.006-.08-.014-.119-.054-.079-.082-.15-.247-.184-.446a.58.58 0 0 1-.006-.039c0-.138.006-.273.015-.406z"/>
        <path d="M16.623 8.843c-.475-.573-.974-.665-1.187-.703a4.88 4.88 0 0 0-.816-.092c-.193-.01-.378-.02-.528-.048-.175.431-1.033.745-2.091.745-1.058 0-1.916-.314-2.09-.745-.152.028-.337.038-.53.049a4.783 4.783 0 0 0-.815.091c-.201.036-.658.118-1.108.609-.272.295-.541.739-.75 1.411a.93.93 0 0 0-.01.51.92.92 0 0 0 .083.217c.464.82 2.998 1.113 5.213 1.113h.013c2.216 0 4.748-.293 5.214-1.113a.896.896 0 0 0 .091-.254.945.945 0 0 0-.018-.472c-.189-.607-.426-1.024-.67-1.318z"/>
    </g>
</svg>
